<svg width="30" height="30" fill="none" xmlns="http://www.w3.org/2000/svg"><mask id="a" fill="#fff"><path fill-rule="evenodd" clip-rule="evenodd" d="M2.5 6A3.5 3.5 0 016 2.5h18A3.5 3.5 0 0127.5 6v18a3.5 3.5 0 01-3.5 3.5H6A3.5 3.5 0 012.5 24V6zm18.75 9a6.25 6.25 0 11-12.5 0 6.25 6.25 0 0112.5 0zm0-6.25a1.25 1.25 0 100-2.5 1.25 1.25 0 000 2.5z"/></mask><path fill-rule="evenodd" clip-rule="evenodd" d="M2.5 6A3.5 3.5 0 016 2.5h18A3.5 3.5 0 0127.5 6v18a3.5 3.5 0 01-3.5 3.5H6A3.5 3.5 0 012.5 24V6zm18.75 9a6.25 6.25 0 11-12.5 0 6.25 6.25 0 0112.5 0zm0-6.25a1.25 1.25 0 100-2.5 1.25 1.25 0 000 2.5z" fill="#333"/><path d="M6 0a6 6 0 00-6 6h5a1 1 0 011-1V0zm18 0H6v5h18V0zm6 6a6 6 0 00-6-6v5a1 1 0 011 1h5zm0 18V6h-5v18h5zm-6 6a6 6 0 006-6h-5a1 1 0 01-1 1v5zM6 30h18v-5H6v5zm-6-6a6 6 0 006 6v-5a1 1 0 01-1-1H0zM0 6v18h5V6H0zm15 17.75A8.75 8.75 0 0023.75 15h-5A3.75 3.75 0 0115 18.75v5zM6.25 15A8.75 8.75 0 0015 23.75v-5A3.75 3.75 0 0111.25 15h-5zM15 6.25A8.75 8.75 0 006.25 15h5A3.75 3.75 0 0115 11.25v-5zM23.75 15A8.75 8.75 0 0015 6.25v5A3.75 3.75 0 0118.75 15h5zM20 7.5c0-.69.56-1.25 1.25-1.25v5A3.75 3.75 0 0025 7.5h-5zm1.25 1.25c-.69 0-1.25-.56-1.25-1.25h5a3.75 3.75 0 00-3.75-3.75v5zM22.5 7.5c0 .69-.56 1.25-1.25 1.25v-5A3.75 3.75 0 0017.5 7.5h5zm-1.25-1.25c.69 0 1.25.56 1.25 1.25h-5a3.75 3.75 0 003.75 3.75v-5z" fill="#333" mask="url(#a)"/></svg>