<svg width="24" height="24" fill="none" xmlns="http://www.w3.org/2000/svg"><path fill-rule="evenodd" clip-rule="evenodd" d="M3.5 0A3.5 3.5 0 000 3.5v17A3.5 3.5 0 003.5 24h17a3.5 3.5 0 003.5-3.5v-17A3.5 3.5 0 0020.5 0h-17zm14.437 12.407c-.208.344-.291.516 0 .9.022.032.132.148.298.323.705.74 2.416 2.54 2.72 3.51.163.57-.122.86-.683.86h-1.968c-.525 0-.79-.303-1.363-.958-.244-.279-.543-.621-.942-1.031-1.17-1.16-1.671-1.31-1.962-1.31-.534 0-.532.156-.52 1.61.003.258.005.556.005.902 0 .498-.153.787-1.406.787-2.085 0-4.377-1.302-6.005-3.705C3.67 10.775 3 8.111 3 7.575c0-.303.113-.574.675-.574h1.969c.505 0 .694.226.889.786.962 2.888 2.586 5.41 3.255 5.41.251 0 .364-.12.364-.773V9.44c-.045-.85-.333-1.217-.547-1.49-.132-.167-.235-.3-.235-.486A.48.48 0 019.871 7h3.095c.414 0 .555.23.555.746v4.01c0 .43.19.581.314.581.25 0 .461-.15.919-.621 1.417-1.629 2.42-4.142 2.42-4.142.123-.303.354-.574.855-.574h1.968c.595 0 .718.316.595.746h-.002c-.247 1.18-2.65 4.657-2.653 4.661z" fill="#fff"/></svg>