<svg width="24" height="24" fill="none" xmlns="http://www.w3.org/2000/svg"><path d="M15.592 5.55a19.145 19.145 0 00-7.185 0c-1.042.232-2.354 1.489-2.61 2.5a13.743 13.743 0 000 5.896c.256 1.011 1.568 2.268 2.61 2.5h.001c.047.01.08.05.08.097v2.866a.16.16 0 00.275.11l1.361-1.397 1.28-1.314a.098.098 0 01.073-.029c1.374.038 2.75-.073 4.115-.332 1.043-.233 2.355-1.49 2.611-2.5.427-1.957.427-3.94 0-5.897-.256-1.011-1.568-2.268-2.61-2.5zm.037 8.542c-.209.443-.512.811-.95 1.046-.124.067-.271.088-.41.131-.161-.049-.314-.081-.456-.14-1.47-.61-2.823-1.397-3.895-2.603-.609-.686-1.086-1.46-1.49-2.28-.19-.389-.352-.793-.516-1.194-.15-.366.07-.744.303-1.02.218-.258.499-.456.802-.602.238-.114.471-.048.645.153.374.434.718.89.996 1.394.171.31.124.689-.186.9-.075.05-.144.11-.214.169a.701.701 0 00-.162.17.467.467 0 00-.031.41c.382 1.052 1.027 1.87 2.086 2.31.17.071.34.153.534.13.327-.038.433-.396.662-.584a.624.624 0 01.75-.032c.242.152.476.316.708.482.228.162.455.321.666.506.202.178.271.412.158.654zm-1.899-3.427a.287.287 0 01-.02 0c-.148-.006-.228-.093-.243-.233-.012-.103-.02-.207-.045-.308a.865.865 0 00-.32-.5.83.83 0 00-.26-.125c-.117-.034-.24-.025-.357-.054-.128-.031-.199-.135-.179-.255a.231.231 0 01.244-.185c.745.053 1.278.439 1.354 1.316.006.062.012.128-.002.187a.191.191 0 01-.172.157zm-.463-2.007a2.622 2.622 0 00-.727-.223c-.11-.018-.22-.03-.33-.045-.134-.018-.205-.103-.2-.235.007-.123.097-.212.231-.204.441.025.868.12 1.26.328.798.423 1.254 1.09 1.387 1.98.006.04.015.08.018.12.008.1.013.2.02.333-.003.024-.004.08-.018.133-.051.194-.344.218-.412.023a.58.58 0 01-.023-.186c0-.407-.089-.814-.294-1.169a2.175 2.175 0 00-.912-.855zm2.465 2.752c-.154.002-.223-.127-.233-.265-.02-.274-.034-.549-.072-.82a3.436 3.436 0 00-2.767-2.872c-.214-.038-.434-.048-.651-.071-.138-.015-.318-.023-.348-.194-.026-.143.095-.257.232-.264.037-.002.074 0 .111 0 1.847.051.113.004.005 0 1.92.056 3.498 1.331 3.836 3.23.058.325.078.656.104.985.01.138-.068.27-.217.271z" fill="#fff"/><path d="M3.5 0A3.5 3.5 0 000 3.5v17A3.5 3.5 0 003.5 24h17a3.5 3.5 0 003.5-3.5v-17A3.5 3.5 0 0020.5 0h-17zm16.09 14.26l-.004.019c-.384 1.55-2.112 3.213-3.7 3.559l-.017.004a20.62 20.62 0 01-5.01.334l-1.753 1.822a.695.695 0 01-1.197-.482v-1.73c-1.528-.437-3.127-2.023-3.495-3.507l-.004-.019a15.144 15.144 0 010-6.524l.004-.019c.384-1.55 2.112-3.213 3.699-3.559l.018-.003c2.567-.49 5.17-.49 7.738 0l.018.003c1.587.346 3.315 2.01 3.699 3.56l.004.018c.474 2.165.474 4.36 0 6.524z" fill="#fff"/></svg>