<svg width="26" height="26" fill="none" xmlns="http://www.w3.org/2000/svg"><mask id="a" fill="#fff"><path fill-rule="evenodd" clip-rule="evenodd" d="M.5 4A3.5 3.5 0 014 .5h18A3.5 3.5 0 0125.5 4v18a3.5 3.5 0 01-3.5 3.5H4A3.5 3.5 0 01.5 22V4zm18.75 9a6.25 6.25 0 11-12.5 0 6.25 6.25 0 0112.5 0zm0-6.25a1.25 1.25 0 100-2.5 1.25 1.25 0 000 2.5z"/></mask><path fill-rule="evenodd" clip-rule="evenodd" d="M.5 4A3.5 3.5 0 014 .5h18A3.5 3.5 0 0125.5 4v18a3.5 3.5 0 01-3.5 3.5H4A3.5 3.5 0 01.5 22V4zm18.75 9a6.25 6.25 0 11-12.5 0 6.25 6.25 0 0112.5 0zm0-6.25a1.25 1.25 0 100-2.5 1.25 1.25 0 000 2.5z" fill="#fff"/><path d="M4-2a6 6 0 00-6 6h5a1 1 0 011-1v-5zm18 0H4v5h18v-5zm6 6a6 6 0 00-6-6v5a1 1 0 011 1h5zm0 18V4h-5v18h5zm-6 6a6 6 0 006-6h-5a1 1 0 01-1 1v5zM4 28h18v-5H4v5zm-6-6a6 6 0 006 6v-5a1 1 0 01-1-1h-5zm0-18v18h5V4h-5zm15 17.75A8.75 8.75 0 0021.75 13h-5A3.75 3.75 0 0113 16.75v5zM4.25 13A8.75 8.75 0 0013 21.75v-5A3.75 3.75 0 019.25 13h-5zM13 4.25A8.75 8.75 0 004.25 13h5A3.75 3.75 0 0113 9.25v-5zM21.75 13A8.75 8.75 0 0013 4.25v5A3.75 3.75 0 0116.75 13h5zM18 5.5c0-.69.56-1.25 1.25-1.25v5A3.75 3.75 0 0023 5.5h-5zm1.25 1.25c-.69 0-1.25-.56-1.25-1.25h5a3.75 3.75 0 00-3.75-3.75v5zM20.5 5.5c0 .69-.56 1.25-1.25 1.25v-5A3.75 3.75 0 0015.5 5.5h5zm-1.25-1.25c.69 0 1.25.56 1.25 1.25h-5a3.75 3.75 0 003.75 3.75v-5z" fill="#fff" mask="url(#a)"/></svg>