<svg width="24" height="24" fill="none" xmlns="http://www.w3.org/2000/svg"><path d="M12.124 5.672c-3.406 0-6.166 2.74-6.166 6.128 0 1.333.438 2.589 1.18 3.598l-.78 2.283 2.379-.76a6.128 6.128 0 003.406 1.008c3.407 0 6.186-2.74 6.186-6.129-.019-3.387-2.798-6.128-6.205-6.128zm3.617 8.66c-.153.418-.895.818-1.218.856-.324.038-.324.267-2.17-.438-1.827-.723-2.988-2.569-3.083-2.702-.096-.114-.743-.97-.743-1.846 0-.876.457-1.314.628-1.485a.719.719 0 01.476-.228c.114 0 .248.019.343.019.114 0 .247-.057.4.304.152.362.513 1.237.551 1.333.038.095.076.19.02.304-.058.114-.096.19-.172.305-.095.095-.19.228-.266.304-.095.095-.19.19-.076.362.114.171.475.761 1.008 1.237.685.609 1.275.8 1.447.894.171.095.285.076.38-.038.115-.114.457-.514.571-.704.115-.171.248-.152.4-.095.171.057 1.047.495 1.237.59.171.095.305.133.343.21.057.037.057.399-.076.818z" fill="#fff"/><path d="M20.5 0h-17C2 0 0 .99 0 3.49v17c0 1.51 1 3.491 3.5 3.491h17c2.5.01 3.5-1.981 3.5-3.49v-17C24 2 23 0 20.5 0zm-8.376 19.09a7.28 7.28 0 01-3.56-.914l-4.072 1.295 1.332-3.902A7.282 7.282 0 014.777 11.8c0-4.035 3.293-7.29 7.347-7.29s7.346 3.255 7.346 7.29-3.292 7.29-7.346 7.29z" fill="#fff"/></svg>