<svg width="26" height="26" viewBox="0 0 26 26" fill="none" xmlns="http://www.w3.org/2000/svg">
<mask id="path-1-inside-1" fill="white">
<path fill-rule="evenodd" clip-rule="evenodd" d="M0.5 4C0.5 2.067 2.067 0.5 4 0.5H22C23.933 0.5 25.5 2.067 25.5 4V22C25.5 23.933 23.933 25.5 22 25.5H4C2.067 25.5 0.5 23.933 0.5 22V4ZM19.25 13C19.25 16.4518 16.4518 19.25 13 19.25C9.54822 19.25 6.75 16.4518 6.75 13C6.75 9.54822 9.54822 6.75 13 6.75C16.4518 6.75 19.25 9.54822 19.25 13ZM19.25 6.75C19.9404 6.75 20.5 6.19036 20.5 5.5C20.5 4.80964 19.9404 4.25 19.25 4.25C18.5596 4.25 18 4.80964 18 5.5C18 6.19036 18.5596 6.75 19.25 6.75Z"/>
</mask>
<path fill-rule="evenodd" clip-rule="evenodd" d="M0.5 4C0.5 2.067 2.067 0.5 4 0.5H22C23.933 0.5 25.5 2.067 25.5 4V22C25.5 23.933 23.933 25.5 22 25.5H4C2.067 25.5 0.5 23.933 0.5 22V4ZM19.25 13C19.25 16.4518 16.4518 19.25 13 19.25C9.54822 19.25 6.75 16.4518 6.75 13C6.75 9.54822 9.54822 6.75 13 6.75C16.4518 6.75 19.25 9.54822 19.25 13ZM19.25 6.75C19.9404 6.75 20.5 6.19036 20.5 5.5C20.5 4.80964 19.9404 4.25 19.25 4.25C18.5596 4.25 18 4.80964 18 5.5C18 6.19036 18.5596 6.75 19.25 6.75Z" fill="white"/>
</svg>
