<?xml version="1.0" encoding="utf-8"?><svg viewBox="0 0 30 30" xmlns="http://www.w3.org/2000/svg" xmlns:xlink="http://www.w3.org/1999/xlink"><style>:root>svg{display:none}:root>svg:target{display:block}</style><svg fill="none" viewBox="0 0 24 24" id="about-me-facebook" xmlns="http://www.w3.org/2000/svg"><path d="M20.484 0H3.516A3.52 3.52 0 000 3.516v16.968A3.52 3.52 0 003.516 24h7.078v-8.484H7.78v-4.22h2.813V8.439a4.223 4.223 0 014.219-4.22h4.265v4.22h-4.265v2.859h4.265l-.703 4.219h-3.563V24h5.672A3.52 3.52 0 0024 20.484V3.516A3.52 3.52 0 0020.484 0z" fill="#333"/></svg><svg fill="none" viewBox="0 0 30 30" id="about-me-instagram" xmlns="http://www.w3.org/2000/svg"><mask id="ba" fill="#fff"><path fill-rule="evenodd" clip-rule="evenodd" d="M2.5 6A3.5 3.5 0 016 2.5h18A3.5 3.5 0 0127.5 6v18a3.5 3.5 0 01-3.5 3.5H6A3.5 3.5 0 012.5 24V6zm18.75 9a6.25 6.25 0 11-12.5 0 6.25 6.25 0 0112.5 0zm0-6.25a1.25 1.25 0 100-2.5 1.25 1.25 0 000 2.5z"/></mask><path fill-rule="evenodd" clip-rule="evenodd" d="M2.5 6A3.5 3.5 0 016 2.5h18A3.5 3.5 0 0127.5 6v18a3.5 3.5 0 01-3.5 3.5H6A3.5 3.5 0 012.5 24V6zm18.75 9a6.25 6.25 0 11-12.5 0 6.25 6.25 0 0112.5 0zm0-6.25a1.25 1.25 0 100-2.5 1.25 1.25 0 000 2.5z" fill="#333"/><path d="M6 0a6 6 0 00-6 6h5a1 1 0 011-1V0zm18 0H6v5h18V0zm6 6a6 6 0 00-6-6v5a1 1 0 011 1h5zm0 18V6h-5v18h5zm-6 6a6 6 0 006-6h-5a1 1 0 01-1 1v5zM6 30h18v-5H6v5zm-6-6a6 6 0 006 6v-5a1 1 0 01-1-1H0zM0 6v18h5V6H0zm15 17.75A8.75 8.75 0 0023.75 15h-5A3.75 3.75 0 0115 18.75v5zM6.25 15A8.75 8.75 0 0015 23.75v-5A3.75 3.75 0 0111.25 15h-5zM15 6.25A8.75 8.75 0 006.25 15h5A3.75 3.75 0 0115 11.25v-5zM23.75 15A8.75 8.75 0 0015 6.25v5A3.75 3.75 0 0118.75 15h5zM20 7.5c0-.69.56-1.25 1.25-1.25v5A3.75 3.75 0 0025 7.5h-5zm1.25 1.25c-.69 0-1.25-.56-1.25-1.25h5a3.75 3.75 0 00-3.75-3.75v5zM22.5 7.5c0 .69-.56 1.25-1.25 1.25v-5A3.75 3.75 0 0017.5 7.5h5zm-1.25-1.25c.69 0 1.25.56 1.25 1.25h-5a3.75 3.75 0 003.75 3.75v-5z" fill="#333" mask="url(#ba)"/></svg><svg fill="none" viewBox="0 0 24 24" id="about-me-telegram" xmlns="http://www.w3.org/2000/svg"><path fill-rule="evenodd" clip-rule="evenodd" d="M24 3.5v17a3.5 3.5 0 01-3.5 3.5h-17A3.5 3.5 0 010 20.5v-17A3.5 3.5 0 013.5 0h17A3.5 3.5 0 0124 3.5zM5.611 10.786c-.873.351-.821 1.604.078 1.883l1.813.562a1 1 0 00.835-.113l6.214-3.974c.202-.129.418.14.25.31l-4.077 4.09a1 1 0 00.038 1.447l4.026 3.635a1 1 0 001.65-.544L18.633 7.22a1 1 0 00-1.354-1.126L5.611 10.786z" fill="#333"/></svg><svg fill="none" viewBox="0 0 24 24" id="footer__contacts-telegram" xmlns="http://www.w3.org/2000/svg"><path fill-rule="evenodd" clip-rule="evenodd" d="M24 3.5v17a3.5 3.5 0 01-3.5 3.5h-17A3.5 3.5 0 010 20.5v-17A3.5 3.5 0 013.5 0h17A3.5 3.5 0 0124 3.5zM5.611 10.786c-.873.351-.821 1.604.078 1.883l1.813.562a1 1 0 00.835-.113l6.214-3.974c.202-.129.418.14.25.31l-4.077 4.09a1 1 0 00.038 1.447l4.026 3.635a1 1 0 001.65-.544L18.633 7.22a1 1 0 00-1.354-1.126L5.611 10.786z" fill="#fff"/></svg><svg fill="none" viewBox="0 0 24 24" id="footer__contacts-viber" xmlns="http://www.w3.org/2000/svg"><path d="M15.592 5.55a19.145 19.145 0 00-7.185 0c-1.042.232-2.354 1.489-2.61 2.5a13.743 13.743 0 000 5.896c.256 1.011 1.568 2.268 2.61 2.5h.001c.047.01.08.05.08.097v2.866a.16.16 0 00.275.11l1.361-1.397 1.28-1.314a.098.098 0 01.073-.029c1.374.038 2.75-.073 4.115-.332 1.043-.233 2.355-1.49 2.611-2.5.427-1.957.427-3.94 0-5.897-.256-1.011-1.568-2.268-2.61-2.5zm.037 8.542c-.209.443-.512.811-.95 1.046-.124.067-.271.088-.41.131-.161-.049-.314-.081-.456-.14-1.47-.61-2.823-1.397-3.895-2.603-.609-.686-1.086-1.46-1.49-2.28-.19-.389-.352-.793-.516-1.194-.15-.366.07-.744.303-1.02.218-.258.499-.456.802-.602.238-.114.471-.048.645.153.374.434.718.89.996 1.394.171.31.124.689-.186.9-.075.05-.144.11-.214.169a.701.701 0 00-.162.17.467.467 0 00-.031.41c.382 1.052 1.027 1.87 2.086 2.31.17.071.34.153.534.13.327-.038.433-.396.662-.584a.624.624 0 01.75-.032c.242.152.476.316.708.482.228.162.455.321.666.506.202.178.271.412.158.654zm-1.899-3.427a.287.287 0 01-.02 0c-.148-.006-.228-.093-.243-.233-.012-.103-.02-.207-.045-.308a.865.865 0 00-.32-.5.83.83 0 00-.26-.125c-.117-.034-.24-.025-.357-.054-.128-.031-.199-.135-.179-.255a.231.231 0 01.244-.185c.745.053 1.278.439 1.354 1.316.006.062.012.128-.002.187a.191.191 0 01-.172.157zm-.463-2.007a2.622 2.622 0 00-.727-.223c-.11-.018-.22-.03-.33-.045-.134-.018-.205-.103-.2-.235.007-.123.097-.212.231-.204.441.025.868.12 1.26.328.798.423 1.254 1.09 1.387 1.98.006.04.015.08.018.12.008.1.013.2.02.333-.003.024-.004.08-.018.133-.051.194-.344.218-.412.023a.58.58 0 01-.023-.186c0-.407-.089-.814-.294-1.169a2.175 2.175 0 00-.912-.855zm2.465 2.752c-.154.002-.223-.127-.233-.265-.02-.274-.034-.549-.072-.82a3.436 3.436 0 00-2.767-2.872c-.214-.038-.434-.048-.651-.071-.138-.015-.318-.023-.348-.194-.026-.143.095-.257.232-.264.037-.002.074 0 .111 0 1.847.051.113.004.005 0 1.92.056 3.498 1.331 3.836 3.23.058.325.078.656.104.985.01.138-.068.27-.217.271z" fill="#fff"/><path d="M3.5 0A3.5 3.5 0 000 3.5v17A3.5 3.5 0 003.5 24h17a3.5 3.5 0 003.5-3.5v-17A3.5 3.5 0 0020.5 0h-17zm16.09 14.26l-.004.019c-.384 1.55-2.112 3.213-3.7 3.559l-.017.004a20.62 20.62 0 01-5.01.334l-1.753 1.822a.695.695 0 01-1.197-.482v-1.73c-1.528-.437-3.127-2.023-3.495-3.507l-.004-.019a15.144 15.144 0 010-6.524l.004-.019c.384-1.55 2.112-3.213 3.699-3.559l.018-.003c2.567-.49 5.17-.49 7.738 0l.018.003c1.587.346 3.315 2.01 3.699 3.56l.004.018c.474 2.165.474 4.36 0 6.524z" fill="#fff"/></svg><svg fill="none" viewBox="0 0 24 24" id="footer__contacts-whatsapp" xmlns="http://www.w3.org/2000/svg"><path d="M12.124 5.672c-3.406 0-6.166 2.74-6.166 6.128 0 1.333.438 2.589 1.18 3.598l-.78 2.283 2.379-.76a6.128 6.128 0 003.406 1.008c3.407 0 6.186-2.74 6.186-6.129-.019-3.387-2.798-6.128-6.205-6.128zm3.617 8.66c-.153.418-.895.818-1.218.856-.324.038-.324.267-2.17-.438-1.827-.723-2.988-2.569-3.083-2.702-.096-.114-.743-.97-.743-1.846 0-.876.457-1.314.628-1.485a.719.719 0 01.476-.228c.114 0 .248.019.343.019.114 0 .247-.057.4.304.152.362.513 1.237.551 1.333.038.095.076.19.02.304-.058.114-.096.19-.172.305-.095.095-.19.228-.266.304-.095.095-.19.19-.076.362.114.171.475.761 1.008 1.237.685.609 1.275.8 1.447.894.171.095.285.076.38-.038.115-.114.457-.514.571-.704.115-.171.248-.152.4-.095.171.057 1.047.495 1.237.59.171.095.305.133.343.21.057.037.057.399-.076.818z" fill="#fff"/><path d="M20.5 0h-17C2 0 0 .99 0 3.49v17c0 1.51 1 3.491 3.5 3.491h17c2.5.01 3.5-1.981 3.5-3.49v-17C24 2 23 0 20.5 0zm-8.376 19.09a7.28 7.28 0 01-3.56-.914l-4.072 1.295 1.332-3.902A7.282 7.282 0 014.777 11.8c0-4.035 3.293-7.29 7.347-7.29s7.346 3.255 7.346 7.29-3.292 7.29-7.346 7.29z" fill="#fff"/></svg><svg fill="none" viewBox="0 0 24 24" id="footer__portfolio-facebook" xmlns="http://www.w3.org/2000/svg"><path d="M20.484 0H3.516A3.52 3.52 0 000 3.516v16.968A3.52 3.52 0 003.516 24h7.078v-8.484H7.78v-4.22h2.813V8.439a4.223 4.223 0 014.219-4.22h4.265v4.22h-4.265v2.859h4.265l-.703 4.219h-3.563V24h5.672A3.52 3.52 0 0024 20.484V3.516A3.52 3.52 0 0020.484 0z" fill="#fff"/></svg><svg fill="none" viewBox="0 0 26 26" id="footer__portfolio-instagram" xmlns="http://www.w3.org/2000/svg"><mask id="ha" fill="#fff"><path fill-rule="evenodd" clip-rule="evenodd" d="M.5 4A3.5 3.5 0 014 .5h18A3.5 3.5 0 0125.5 4v18a3.5 3.5 0 01-3.5 3.5H4A3.5 3.5 0 01.5 22V4zm18.75 9a6.25 6.25 0 11-12.5 0 6.25 6.25 0 0112.5 0zm0-6.25a1.25 1.25 0 100-2.5 1.25 1.25 0 000 2.5z"/></mask><path fill-rule="evenodd" clip-rule="evenodd" d="M.5 4A3.5 3.5 0 014 .5h18A3.5 3.5 0 0125.5 4v18a3.5 3.5 0 01-3.5 3.5H4A3.5 3.5 0 01.5 22V4zm18.75 9a6.25 6.25 0 11-12.5 0 6.25 6.25 0 0112.5 0zm0-6.25a1.25 1.25 0 100-2.5 1.25 1.25 0 000 2.5z" fill="#fff"/><path d="M4-2a6 6 0 00-6 6h5a1 1 0 011-1v-5zm18 0H4v5h18v-5zm6 6a6 6 0 00-6-6v5a1 1 0 011 1h5zm0 18V4h-5v18h5zm-6 6a6 6 0 006-6h-5a1 1 0 01-1 1v5zM4 28h18v-5H4v5zm-6-6a6 6 0 006 6v-5a1 1 0 01-1-1h-5zm0-18v18h5V4h-5zm15 17.75A8.75 8.75 0 0021.75 13h-5A3.75 3.75 0 0113 16.75v5zM4.25 13A8.75 8.75 0 0013 21.75v-5A3.75 3.75 0 019.25 13h-5zM13 4.25A8.75 8.75 0 004.25 13h5A3.75 3.75 0 0113 9.25v-5zM21.75 13A8.75 8.75 0 0013 4.25v5A3.75 3.75 0 0116.75 13h5zM18 5.5c0-.69.56-1.25 1.25-1.25v5A3.75 3.75 0 0023 5.5h-5zm1.25 1.25c-.69 0-1.25-.56-1.25-1.25h5a3.75 3.75 0 00-3.75-3.75v5zM20.5 5.5c0 .69-.56 1.25-1.25 1.25v-5A3.75 3.75 0 0015.5 5.5h5zm-1.25-1.25c.69 0 1.25.56 1.25 1.25h-5a3.75 3.75 0 003.75 3.75v-5z" fill="#fff" mask="url(#ha)"/></svg><svg fill="none" viewBox="0 0 24 24" id="footer__portfolio-vkontakte" xmlns="http://www.w3.org/2000/svg"><path fill-rule="evenodd" clip-rule="evenodd" d="M3.5 0A3.5 3.5 0 000 3.5v17A3.5 3.5 0 003.5 24h17a3.5 3.5 0 003.5-3.5v-17A3.5 3.5 0 0020.5 0h-17zm14.437 12.407c-.208.344-.291.516 0 .9.022.032.132.148.298.323.705.74 2.416 2.54 2.72 3.51.163.57-.122.86-.683.86h-1.968c-.525 0-.79-.303-1.363-.958-.244-.279-.543-.621-.942-1.031-1.17-1.16-1.671-1.31-1.962-1.31-.534 0-.532.156-.52 1.61.003.258.005.556.005.902 0 .498-.153.787-1.406.787-2.085 0-4.377-1.302-6.005-3.705C3.67 10.775 3 8.111 3 7.575c0-.303.113-.574.675-.574h1.969c.505 0 .694.226.889.786.962 2.888 2.586 5.41 3.255 5.41.251 0 .364-.12.364-.773V9.44c-.045-.85-.333-1.217-.547-1.49-.132-.167-.235-.3-.235-.486A.48.48 0 019.871 7h3.095c.414 0 .555.23.555.746v4.01c0 .43.19.581.314.581.25 0 .461-.15.919-.621 1.417-1.629 2.42-4.142 2.42-4.142.123-.303.354-.574.855-.574h1.968c.595 0 .718.316.595.746h-.002c-.247 1.18-2.65 4.657-2.653 4.661z" fill="#fff"/></svg></svg>