<?xml version="1.0" encoding="utf-8"?><svg viewBox="0 0 30 30" xmlns="http://www.w3.org/2000/svg" xmlns:xlink="http://www.w3.org/1999/xlink"><style>:root>svg{display:none}:root>svg:target{display:block}</style><svg fill="none" viewBox="0 0 24 24" id="about-me-facebook" xmlns="http://www.w3.org/2000/svg"><path d="M20.484 0H3.516A3.52 3.52 0 000 3.516v16.968A3.52 3.52 0 003.516 24h7.078v-8.484H7.78v-4.22h2.813V8.439a4.223 4.223 0 014.219-4.22h4.265v4.22h-4.265v2.859h4.265l-.703 4.219h-3.563V24h5.672A3.52 3.52 0 0024 20.484V3.516A3.52 3.52 0 0020.484 0z" fill="#333"/></svg><svg fill="none" viewBox="0 0 30 30" id="about-me-instagram" xmlns="http://www.w3.org/2000/svg"><mask id="ba" fill="#fff"><path fill-rule="evenodd" clip-rule="evenodd" d="M2.5 6A3.5 3.5 0 016 2.5h18A3.5 3.5 0 0127.5 6v18a3.5 3.5 0 01-3.5 3.5H6A3.5 3.5 0 012.5 24V6zm18.75 9a6.25 6.25 0 11-12.5 0 6.25 6.25 0 0112.5 0zm0-6.25a1.25 1.25 0 100-2.5 1.25 1.25 0 000 2.5z"/></mask><path fill-rule="evenodd" clip-rule="evenodd" d="M2.5 6A3.5 3.5 0 016 2.5h18A3.5 3.5 0 0127.5 6v18a3.5 3.5 0 01-3.5 3.5H6A3.5 3.5 0 012.5 24V6zm18.75 9a6.25 6.25 0 11-12.5 0 6.25 6.25 0 0112.5 0zm0-6.25a1.25 1.25 0 100-2.5 1.25 1.25 0 000 2.5z" fill="#333"/><path d="M6 0a6 6 0 00-6 6h5a1 1 0 011-1V0zm18 0H6v5h18V0zm6 6a6 6 0 00-6-6v5a1 1 0 011 1h5zm0 18V6h-5v18h5zm-6 6a6 6 0 006-6h-5a1 1 0 01-1 1v5zM6 30h18v-5H6v5zm-6-6a6 6 0 006 6v-5a1 1 0 01-1-1H0zM0 6v18h5V6H0zm15 17.75A8.75 8.75 0 0023.75 15h-5A3.75 3.75 0 0115 18.75v5zM6.25 15A8.75 8.75 0 0015 23.75v-5A3.75 3.75 0 0111.25 15h-5zM15 6.25A8.75 8.75 0 006.25 15h5A3.75 3.75 0 0115 11.25v-5zM23.75 15A8.75 8.75 0 0015 6.25v5A3.75 3.75 0 0118.75 15h5zM20 7.5c0-.69.56-1.25 1.25-1.25v5A3.75 3.75 0 0025 7.5h-5zm1.25 1.25c-.69 0-1.25-.56-1.25-1.25h5a3.75 3.75 0 00-3.75-3.75v5zM22.5 7.5c0 .69-.56 1.25-1.25 1.25v-5A3.75 3.75 0 0017.5 7.5h5zm-1.25-1.25c.69 0 1.25.56 1.25 1.25h-5a3.75 3.75 0 003.75 3.75v-5z" fill="#333" mask="url(#ba)"/></svg><svg fill="none" viewBox="0 0 24 24" id="about-me-telegram" xmlns="http://www.w3.org/2000/svg"><path fill-rule="evenodd" clip-rule="evenodd" d="M24 3.5v17a3.5 3.5 0 01-3.5 3.5h-17A3.5 3.5 0 010 20.5v-17A3.5 3.5 0 013.5 0h17A3.5 3.5 0 0124 3.5zM5.611 10.786c-.873.351-.821 1.604.078 1.883l1.813.562a1 1 0 00.835-.113l6.214-3.974c.202-.129.418.14.25.31l-4.077 4.09a1 1 0 00.038 1.447l4.026 3.635a1 1 0 001.65-.544L18.633 7.22a1 1 0 00-1.354-1.126L5.611 10.786z" fill="#333"/></svg></svg>